<?xml version="1.0" standalone="no"?>
<!DOCTYPE svg PUBLIC "-//W3C//DTD SVG 20010904//EN"
 "http://www.w3.org/TR/2001/REC-SVG-20010904/DTD/svg10.dtd">
<svg version="1.0" xmlns="http://www.w3.org/2000/svg"
 width="300.000000pt" height="302.000000pt" viewBox="0 0 300.000000 302.000000"
 preserveAspectRatio="xMidYMid meet">
<metadata>
Created by potrace 1.10, written by Peter Selinger 2001-2011
</metadata>
<g transform="translate(0.000000,302.000000) scale(0.050000,-0.050000)"
fill="#414141" stroke="none">
<path d="M1894 4815 l-1014 -585 5 -1187 5 -1187 1000 -578 c550 -317 1011
-577 1023 -577 13 -1 337 180 720 401 384 221 839 484 1012 584 l315 182 -5
1181 -5 1181 -1010 584 c-555 321 -1015 584 -1021 585 -6 1 -467 -262 -1025
-584z m1961 -164 l915 -528 5 -1077 4 -1076 -932 -536 -932 -535 -562 324
c-310 178 -727 419 -928 534 l-365 210 5 1081 5 1082 910 524 c501 289 921
525 935 526 13 0 436 -238 940 -529z"/>
<path d="M2695 3936 l-175 -99 0 -88 c0 -95 5 -91 -350 -282 l-80 -43 -6 -209
-5 -210 -80 -36 -80 -36 5 -231 6 -231 178 -99 c163 -90 183 -97 238 -76 56
21 79 13 316 -118 l255 -140 253 141 c203 114 259 137 290 121 60 -32 83 -25
276 82 l184 103 -1 222 0 223 -85 42 -84 43 -10 205 -10 205 -217 123 -217
122 9 84 10 85 -143 73 c-78 41 -160 86 -181 101 -62 42 -108 30 -296 -77z
m353 -58 c126 -69 126 -70 -18 -146 -124 -65 -116 -65 -256 15 l-116 66 116
63 c143 77 134 77 274 2z m-288 -225 l110 -66 6 -133 c7 -156 4 -157 -146 -72
l-110 62 0 138 c0 159 -4 157 140 71z m460 -68 l0 -136 -118 -64 c-150 -83
-142 -88 -142 75 l0 139 115 60 c151 78 145 81 145 -74z m-495 -301 l194 -106
186 106 c177 102 185 109 191 181 8 92 16 92 181 3 189 -103 183 -96 183 -250
0 -153 2 -150 -80 -108 -57 29 -64 27 -249 -75 l-190 -105 -1 -224 0 -224 90
-53 c113 -66 124 -48 -113 -178 l-203 -111 -151 82 c-83 46 -176 99 -207 117
l-56 35 100 54 100 54 0 229 c0 126 -8 229 -17 229 -10 0 -100 46 -201 102
-125 70 -191 96 -208 83 -82 -63 -94 -50 -94 102 l0 146 165 90 165 91 10 -82
c10 -80 14 -83 205 -188z m-305 -309 c147 -79 147 -75 0 -153 l-120 -65 -120
66 c-76 42 -112 73 -100 85 14 14 183 116 215 130 3 1 59 -27 125 -63z m1340
-80 c0 -8 -54 -42 -121 -75 l-121 -61 -121 68 -122 69 47 30 c27 16 84 48 128
70 l80 40 115 -63 c63 -35 115 -70 115 -78z m-1504 -350 c3 -80 2 -145 -3
-145 -5 0 -61 30 -126 66 l-117 66 -6 145 -6 145 126 -66 126 -67 6 -144z
m364 125 l0 -128 -127 -71 c-162 -91 -153 -94 -153 68 l0 139 125 67 c154 83
155 82 155 -75z m856 -129 c3 -80 -2 -142 -12 -138 -9 4 -68 34 -131 67 l-113
60 0 147 0 147 125 -69 125 -68 6 -146z m344 134 l0 -146 -118 -64 c-150 -83
-142 -88 -142 74 l0 139 125 69 c69 37 127 69 130 71 3 1 5 -63 5 -143z"/>
</g>
</svg>
